HIERARCHY
ROOT Hips
{
	OFFSET 0.000000 0.000000 0.000000 
	CHANNELS 6 Xposition Yposition Zposition Zrotation Yrotation Xrotation
	JOINT LeftUpLeg
	{
		OFFSET 1.363060 -1.794630 0.839290 
		CHANNELS 3 Zrotation Yrotation Xrotation
		JOINT LeftLeg
		{
			OFFSET 2.448110 -6.726130 0.000000 
			CHANNELS 3 Zrotation Yrotation Xrotation
			JOINT LeftFoot
			{
				OFFSET 2.562200 -7.039590 0.000000 
				CHANNELS 3 Zrotation Yrotation Xrotation
				JOINT LeftToeBase
				{
					OFFSET 0.157640 -0.433110 2.322550 
					CHANNELS 3 Zrotation Yrotation Xrotation
					End Site
					{
						OFFSET 0.000000 0.000000 0.000000 
					}
				}
			}
		}
	}
	JOINT RightUpLeg
	{
		OFFSET -1.305520 -1.794630 0.839290 
		CHANNELS 3 Zrotation Yrotation Xrotation
		JOINT RightLeg
		{
			OFFSET -2.542530 -6.985550 0.000000 
			CHANNELS 3 Zrotation Yrotation Xrotation
			JOINT RightFoot
			{
				OFFSET -2.568260 -7.056230 0.000000 
				CHANNELS 3 Zrotation Yrotation Xrotation
				JOINT RightToeBase
				{
					OFFSET -0.164730 -0.452590 2.363150 
					CHANNELS 3 Zrotation Yrotation Xrotation
					End Site
					{
						OFFSET 0.000000 0.000000 0.000000 
					}
				}
			}
		}
	}
	JOINT Spine
	{
		OFFSET 0.028270 2.035590 -0.193380 
		CHANNELS 3 Zrotation Yrotation Xrotation
		JOINT Spine1
		{
			OFFSET 0.056720 2.048850 -0.042750 
			CHANNELS 3 Zrotation Yrotation Xrotation
			JOINT Neck1
			{
				OFFSET -0.054170 1.746240 0.172020 
				CHANNELS 3 Zrotation Yrotation Xrotation
				JOINT Head
				{
					OFFSET 0.104070 1.761360 -0.123970 
					CHANNELS 3 Zrotation Yrotation Xrotation
					End Site
					{
						OFFSET 0.000000 0.000000 0.000000 
					}
				}
			}
			JOINT LeftArm
			{
				OFFSET 3.362410 1.200890 -0.311210 
				CHANNELS 3 Zrotation Yrotation Xrotation
				JOINT LeftForeArm
				{
					OFFSET 4.983000 -0.000000 -0.000000 
					CHANNELS 3 Zrotation Yrotation Xrotation
					JOINT LeftHand
					{
						OFFSET 3.483560 -0.000000 -0.000000 
						CHANNELS 3 Zrotation Yrotation Xrotation
						JOINT LeftHandIndex1
						{
							OFFSET 0.715260 -0.000000 -0.000000 
							CHANNELS 3 Zrotation Yrotation Xrotation
							End Site
							{
								OFFSET 0.000000 0.000000 0.000000 
							}
						}
					}
				}
			}
			JOINT RightArm
			{
				OFFSET -3.136600 1.374050 -0.404650 
				CHANNELS 3 Zrotation Yrotation Xrotation
				JOINT RightForeArm
				{
					OFFSET -5.241900 -0.000000 -0.000000 
					CHANNELS 3 Zrotation Yrotation Xrotation
					JOINT RightHand
					{
						OFFSET -3.444170 -0.000000 -0.000000 
						CHANNELS 3 Zrotation Yrotation Xrotation
						JOINT RightHandIndex1
						{
							OFFSET -0.622530 -0.000000 -0.000000 
							CHANNELS 3 Zrotation Yrotation Xrotation
							End Site
							{
								OFFSET 0.000000 0.000000 0.000000 
							}
						}
					}
				}
			}
		}
	}
}
MOTION
Frames: 9
Frame Time: 0.041667
-0.002026 17.822781 -14.456685 -2.100815 -0.422278 8.225768 -13.796070 1.863116 -17.625339 -0.219789 6.485896 17.701246 -0.548718 4.409433 -0.181334 -0.000000 0.018900 0.051900 20.448342 2.165493 -16.607055 -0.472471 -7.295821 20.391575 -0.206575 -0.357066 -3.863765 -0.445900 -4.284300 11.877900 1.527984 -0.696594 -1.049083 1.044533 -0.736325 9.135729 2.964124 -0.536773 36.320437 0.856900 0.207400 13.677900 -97.962771 -11.103479 31.984879 6.758041 -15.410958 -0.888432 -0.069065 -0.699445 -2.568624 -7.125000 0.000000 0.000000 94.284432 10.090337 10.828645 -8.813215 19.760798 -1.728237 0.700006 0.909084 32.585541 7.125000 0.000000 0.000000 
0.000304 17.822376 -14.457799 -2.107007 -0.427592 8.216785 -13.798002 1.859119 -17.629166 -0.217488 6.492306 17.718997 -0.551980 4.424950 -0.183928 -0.000000 0.009700 0.026700 20.447212 2.179308 -16.597115 -0.472718 -7.296137 20.392771 -0.202856 -0.381395 -3.873052 -0.442900 -4.270100 11.837900 1.526466 -0.695064 -1.051084 1.039572 -0.736090 9.135403 2.948459 -0.496767 36.308557 0.845700 0.230100 13.684900 -97.931976 -11.127231 31.922444 6.741524 -15.380219 -0.881727 -0.075189 -0.699204 -2.533030 -7.125000 0.000000 0.000000 94.326880 10.072781 10.765500 -8.808241 19.751894 -1.726915 0.702966 0.904537 32.706059 7.125000 0.000000 0.000000 
0.002633 17.821667 -14.459014 -2.119489 -0.431949 8.213232 -13.788332 1.839907 -17.625315 -0.216817 6.494246 17.724653 -0.553602 4.432120 -0.196764 -0.000000 0.019400 0.053300 20.452358 2.189419 -16.591843 -0.471346 -7.292426 20.382744 -0.202562 -0.383964 -3.880667 -0.445000 -4.280300 11.866500 1.526952 -0.697108 -1.060254 1.041947 -0.737405 9.106603 2.935206 -0.468217 36.284575 0.837600 0.244700 13.679000 -97.902975 -11.114007 31.851484 6.728515 -15.358602 -0.878155 -0.073941 -0.699171 -2.495259 -7.125000 0.000000 0.000000 94.356581 10.029354 10.776194 -8.808876 19.752364 -1.727615 0.703567 0.902451 32.660560 7.125000 0.000000 0.000000 
0.005773 17.821870 -14.459115 -2.132526 -0.447453 8.195047 -13.787108 1.848634 -17.611212 -0.215083 6.497423 17.734073 -0.557593 4.450577 -0.204859 0.000000 0.000700 0.002000 20.454602 2.188800 -16.568277 -0.470379 -7.288772 20.374380 -0.203110 -0.376367 -3.856718 -0.444400 -4.277400 11.858400 1.528674 -0.693006 -1.061744 1.052236 -0.736353 9.099498 2.944713 -0.453352 36.258512 0.845300 0.250600 13.671000 -97.886974 -11.115099 31.797749 6.725444 -15.353846 -0.876968 -0.075443 -0.699066 -2.458575 -7.125000 0.000000 0.000000 94.385138 10.044092 10.709898 -8.793823 19.723698 -1.720692 0.701815 0.905756 32.626579 7.125000 0.000000 0.000000 
0.008710 17.821566 -14.459926 -2.145953 -0.456038 8.187400 -13.782303 1.843306 -17.606954 -0.214012 6.499969 17.741194 -0.560734 4.465694 -0.210279 0.000000 -0.006100 -0.016700 20.458170 2.191772 -16.558671 -0.469256 -7.285392 20.365536 -0.202874 -0.375759 -3.844378 -0.442800 -4.269500 11.836000 1.530079 -0.693042 -1.066173 1.057545 -0.736690 9.086972 2.942751 -0.433528 36.233177 0.845900 0.259300 13.662700 -97.869134 -11.115290 31.732401 6.715777 -15.337202 -0.874002 -0.076363 -0.698885 -2.418412 -7.125000 0.000000 0.000000 94.413659 10.028943 10.670755 -8.788179 19.712501 -1.718381 0.701572 0.905715 32.631989 7.125000 0.000000 0.000000 
0.011951 17.821465 -14.460837 -2.159789 -0.463383 8.181155 -13.777528 1.837542 -17.603893 -0.213009 6.502052 17.747252 -0.563688 4.479186 -0.216012 0.000000 -0.011600 -0.031800 20.461611 2.190806 -16.550536 -0.467643 -7.280905 20.353763 -0.202962 -0.372731 -3.828646 -0.440700 -4.259700 11.808500 1.531878 -0.694536 -1.070354 1.062750 -0.737760 9.075771 2.937516 -0.416567 36.206137 0.845200 0.265900 13.651900 -97.855633 -11.115905 31.660804 6.706190 -15.320335 -0.871320 -0.076846 -0.698667 -2.372931 -7.125000 0.000000 0.000000 94.439749 10.012179 10.635841 -8.784138 19.704503 -1.716774 0.701181 0.905791 32.641095 7.125000 0.000000 0.000000 
0.015293 17.821262 -14.461850 -2.173388 -0.468898 8.176032 -13.774021 1.831223 -17.604179 -0.211690 6.505690 17.757189 -0.566011 4.490132 -0.223817 0.000000 -0.014500 -0.039800 20.464043 2.187681 -16.546972 -0.466809 -7.278362 20.347116 -0.203465 -0.367665 -3.816929 -0.438800 -4.250600 11.782800 1.533527 -0.696723 -1.073986 1.065592 -0.738881 9.066947 2.927412 -0.402145 36.177216 0.842100 0.270800 13.639200 -97.845313 -11.120045 31.582778 6.695416 -15.301038 -0.868338 -0.077281 -0.698420 -2.322251 -7.125000 0.000000 0.000000 94.465449 9.994036 10.601990 -8.781734 19.699398 -1.715839 0.700974 0.905680 32.661830 7.125000 0.000000 0.000000 
0.018837 17.821060 -14.463166 -2.187222 -0.471339 8.172412 -13.770445 1.824493 -17.608039 -0.210302 6.509907 17.768741 -0.567229 4.495594 -0.231578 0.000000 -0.012500 -0.034400 20.466550 2.184724 -16.546057 -0.466159 -7.276272 20.341963 -0.203765 -0.364212 -3.808670 -0.437900 -4.246100 11.770100 1.535507 -0.700893 -1.076732 1.067642 -0.740910 9.061763 2.911355 -0.388028 36.147270 0.836200 0.275000 13.626300 -97.837984 -11.128612 31.499406 6.684365 -15.281196 -0.865337 -0.077430 -0.698205 -2.268052 -7.125000 0.000000 0.000000 94.489379 9.975227 10.580220 -8.783121 19.700927 -1.716278 0.701031 0.905306 32.677990 7.125000 0.000000 0.000000 
0.022483 17.820857 -14.464686 -2.201132 -0.471285 8.169501 -13.767220 1.819046 -17.615986 -0.208622 6.515101 17.782861 -0.567391 4.495959 -0.238920 0.000000 -0.009100 -0.025100 20.468994 2.183075 -16.546314 -0.465616 -7.274698 20.337861 -0.203948 -0.362706 -3.804979 -0.437800 -4.245900 11.769600 1.538029 -0.707357 -1.079099 1.070570 -0.744180 9.057278 2.887893 -0.373654 36.117783 0.826700 0.278900 13.615500 -97.834526 -11.139277 31.412396 6.673686 -15.261724 -0.862290 -0.077605 -0.698038 -2.214107 -7.125000 0.000000 0.000000 94.509940 9.958086 10.567189 -8.785911 19.705022 -1.717105 0.701314 0.904966 32.685063 7.125000 0.000000 0.000000 
